# xmcd CD database file
#
# Track frame offsets:
#	150
#	10275
#	19725
#	30725
#	43225
#	57600
#	70650
#	85050
#	97650
#	107250
#	116850
#
# Disc length: 1716 seconds
#
# Revision: 0
# Processed by: cddbd v1.5.2PL0 Copyright (c) Steve Scherf et al.
# Submitted via: CDex 1.70beta2
#
DISCID=8506b20b
DTITLE=David Bristow - Junkyard Blues
DYEAR=2005
DGENRE=Blues
TTITLE0=Christmas Day Blues
TTITLE1=Same Old Story
TTITLE2=Ain't Gonna Help You Now
TTITLE3=What's Going On With You
TTITLE4=Look Now, Child
TTITLE5=Didn't Get No Sleep Last Night
TTITLE6=Nobody But You
TTITLE7=Old Blind Dog
TTITLE8=Jug Of Whisky
TTITLE9=Rosie Mae Blues
TTITLE10=Easy Going Mama
EXTD=YEAR: 2005
EXTT0=
EXTT1=
EXTT2=
EXTT3=
EXTT4=
EXTT5=
EXTT6=
EXTT7=
EXTT8=
EXTT9=
EXTT10=
PLAYORDER=
